<svg xmlns="http://www.w3.org/2000/svg" width="247" height="247" viewBox="0 0 247 247">
<g>
<path d="M 137.68 223.96 C127.28,225.34 112.03,225.08 104.00,223.39 C100.43,222.63 96.03,221.84 94.23,221.62 C92.43,221.39 90.41,220.77 89.73,220.22 C89.05,219.68 86.94,218.90 85.03,218.49 C77.82,216.94 53.00,202.44 53.00,199.78 C53.00,199.38 51.66,198.36 50.03,197.51 C47.38,196.14 42.65,190.95 35.00,181.02 C33.62,179.23 31.79,177.03 30.92,176.13 C28.05,173.15 24.72,166.84 21.94,159.13 C20.43,154.93 18.30,149.02 17.21,146.00 C16.12,142.98 14.67,136.68 14.00,132.00 C12.20,119.62 13.97,97.78 17.30,91.10 C18.14,89.41 19.15,86.55 19.54,84.76 C20.46,80.52 28.02,64.94 30.10,63.00 C30.99,62.17 32.06,60.39 32.49,59.04 C33.90,54.58 57.62,32.00 60.89,32.00 C61.33,32.00 62.78,31.05 64.10,29.90 C67.39,27.02 79.49,21.00 81.99,21.00 C83.11,21.00 85.93,20.14 88.26,19.08 C98.68,14.38 109.94,12.65 126.00,13.32 C142.25,13.98 150.07,15.26 154.43,17.96 C156.59,19.29 158.74,19.90 159.94,19.52 C162.01,18.86 174.83,24.89 178.44,28.21 C179.50,29.20 180.99,30.00 181.73,30.00 C182.48,30.00 185.40,32.14 188.22,34.75 C191.04,37.36 192.99,38.89 192.55,38.15 C192.02,37.24 192.61,37.35 194.35,38.49 C197.73,40.71 215.16,59.95 216.63,63.08 C217.25,64.41 219.62,69.41 221.88,74.19 C224.15,78.97 226.00,83.58 226.00,84.44 C226.00,85.30 226.43,86.00 226.95,86.00 C227.48,86.00 228.21,87.69 228.59,89.75 C228.96,91.81 229.99,95.07 230.88,97.00 C233.07,101.74 232.99,127.28 230.74,138.00 C227.71,152.46 224.55,161.13 220.09,167.20 C218.39,169.51 217.00,171.98 217.00,172.70 C217.00,173.41 215.20,175.85 213.00,178.12 C210.80,180.39 209.00,182.82 209.00,183.52 C209.00,185.79 191.06,203.24 189.39,202.60 C188.48,202.25 186.80,203.16 185.19,204.88 C181.75,208.56 174.60,213.00 172.13,213.00 C171.07,213.00 169.98,213.62 169.68,214.38 C169.39,215.14 165.86,216.71 161.83,217.88 C157.80,219.05 152.48,220.66 150.00,221.46 C147.52,222.26 141.98,223.39 137.68,223.96 ZM 109.78 210.44 C110.55,211.22 110.82,211.19 121.76,209.43 C127.11,208.57 134.23,206.77 137.57,205.43 C140.92,204.10 144.35,203.00 145.19,203.00 C146.04,203.00 147.87,202.10 149.27,201.00 C150.67,199.90 152.25,199.00 152.78,199.00 C154.01,199.00 166.21,189.05 171.63,183.63 C182.48,172.78 187.87,165.46 190.64,157.80 C191.82,154.55 193.56,151.04 194.51,149.99 C195.93,148.42 196.30,145.46 196.65,132.80 C196.93,122.63 196.66,115.99 195.85,113.00 C194.52,108.06 184.70,92.20 182.43,91.34 C181.65,91.04 181.30,90.32 181.66,89.74 C182.04,89.12 181.83,88.99 181.13,89.42 C180.48,89.82 177.06,88.53 173.53,86.55 C165.81,82.24 155.04,80.48 142.13,81.42 C134.12,82.00 120.84,85.63 116.50,88.41 C115.40,89.12 112.78,90.26 110.69,90.95 C108.59,91.63 105.89,93.08 104.69,94.17 C100.48,97.97 93.80,103.00 92.97,103.00 C92.51,103.00 91.87,103.83 91.55,104.85 C91.23,105.86 89.85,107.21 88.48,107.83 C87.12,108.45 86.00,109.46 86.00,110.08 C86.00,110.70 83.30,114.34 80.00,118.16 C76.70,121.98 74.00,125.54 74.00,126.06 C74.00,127.85 73.76,128.51 72.38,130.47 C71.62,131.56 71.00,133.22 71.00,134.17 C71.00,135.11 70.20,136.47 69.21,137.19 C68.02,138.06 67.37,139.95 67.28,142.82 C67.20,145.19 66.60,147.78 65.94,148.57 C65.10,149.59 64.87,154.31 65.18,164.95 C65.53,177.21 65.91,180.24 67.30,181.78 C68.24,182.81 69.00,184.27 69.00,185.01 C69.00,187.42 75.26,195.53 79.85,199.06 C87.66,205.07 92.23,207.13 100.86,208.53 C105.46,209.27 109.47,210.13 109.78,210.44 ZM 117.00 165.82 C115.62,166.71 112.37,168.44 109.77,169.67 C104.04,172.36 102.44,171.00 106.82,167.17 C110.18,164.22 110.69,162.04 111.63,146.40 C112.19,137.22 110.93,130.70 107.59,125.50 C106.11,123.19 106.61,120.64 108.34,121.72 C111.95,124.00 120.57,126.16 128.10,126.67 C136.95,127.28 144.25,125.81 149.83,122.31 C151.11,121.51 152.83,121.11 153.65,121.42 C155.38,122.08 154.93,124.23 151.67,131.00 C149.87,134.74 149.50,137.28 149.50,146.00 C149.50,155.12 149.83,157.19 151.99,161.75 C153.37,164.64 154.83,167.00 155.24,167.00 C155.66,167.00 156.00,167.90 156.00,169.00 C156.00,170.10 155.53,171.00 154.95,171.00 C153.64,171.00 148.01,168.18 146.00,166.52 C141.52,162.81 122.32,162.35 117.00,165.82 Z" fill="rgb(140,82,253)"/>
<path d="M 145.50 224.51 C134.95,226.74 117.06,227.20 106.50,225.51 C51.86,216.77 12.00,172.05 12.00,119.50 C12.00,91.06 23.24,64.52 44.06,43.79 C56.76,31.15 71.87,21.95 88.50,16.72 C101.35,12.69 110.05,11.71 128.14,12.26 C141.55,12.67 146.03,13.21 153.00,15.24 C175.76,21.85 193.40,32.78 207.60,49.08 C212.45,54.64 221.00,66.40 221.00,67.52 C221.00,67.72 222.55,71.18 224.45,75.20 C230.95,88.99 234.00,102.98 233.99,118.93 C233.98,132.13 232.78,139.90 228.88,152.00 C217.06,188.69 185.62,216.03 145.50,224.51 ZM 137.68 223.96 C141.98,223.39 147.52,222.26 150.00,221.46 C152.48,220.66 157.80,219.05 161.83,217.88 C165.86,216.71 169.39,215.14 169.68,214.38 C169.98,213.62 171.07,213.00 172.13,213.00 C174.60,213.00 181.75,208.56 185.19,204.88 C186.80,203.16 188.48,202.25 189.39,202.60 C191.06,203.24 209.00,185.79 209.00,183.52 C209.00,182.82 210.80,180.39 213.00,178.12 C215.20,175.85 217.00,173.41 217.00,172.70 C217.00,171.98 218.39,169.51 220.09,167.20 C224.55,161.13 227.71,152.46 230.74,138.00 C232.99,127.28 233.07,101.74 230.88,97.00 C229.99,95.07 228.96,91.81 228.59,89.75 C228.21,87.69 227.48,86.00 226.95,86.00 C226.43,86.00 226.00,85.30 226.00,84.44 C226.00,83.58 224.15,78.97 221.88,74.19 C219.62,69.41 217.25,64.41 216.63,63.08 C215.16,59.95 197.73,40.71 194.35,38.49 C192.61,37.35 192.02,37.24 192.55,38.15 C192.99,38.89 191.04,37.36 188.22,34.75 C185.40,32.14 182.48,30.00 181.73,30.00 C180.99,30.00 179.50,29.20 178.44,28.21 C174.83,24.89 162.01,18.86 159.94,19.52 C158.74,19.90 156.59,19.29 154.43,17.96 C150.07,15.26 142.25,13.98 126.00,13.32 C109.94,12.65 98.68,14.38 88.26,19.08 C85.93,20.14 83.11,21.00 81.99,21.00 C79.49,21.00 67.39,27.02 64.10,29.90 C62.78,31.05 61.33,32.00 60.89,32.00 C57.62,32.00 33.90,54.58 32.49,59.04 C32.06,60.39 30.99,62.17 30.10,63.00 C28.02,64.94 20.46,80.52 19.54,84.76 C19.15,86.55 18.14,89.41 17.30,91.10 C13.97,97.78 12.20,119.62 14.00,132.00 C14.67,136.68 16.12,142.98 17.21,146.00 C18.30,149.02 20.43,154.93 21.94,159.13 C24.72,166.84 28.05,173.15 30.92,176.13 C31.79,177.03 33.62,179.23 35.00,181.02 C42.65,190.95 47.38,196.14 50.03,197.51 C51.66,198.36 53.00,199.38 53.00,199.78 C53.00,202.44 77.82,216.94 85.03,218.49 C86.94,218.90 89.05,219.68 89.73,220.22 C90.41,220.77 92.43,221.39 94.23,221.62 C96.03,221.84 100.43,222.63 104.00,223.39 C112.03,225.08 127.28,225.34 137.68,223.96 ZM 109.78 210.44 C109.47,210.13 105.46,209.27 100.86,208.53 C92.23,207.13 87.66,205.07 79.85,199.06 C75.26,195.53 69.00,187.42 69.00,185.01 C69.00,184.27 68.24,182.81 67.30,181.78 C65.91,180.24 65.53,177.21 65.18,164.95 C64.87,154.31 65.10,149.59 65.94,148.57 C66.60,147.78 67.20,145.19 67.28,142.82 C67.37,139.95 68.02,138.06 69.21,137.19 C70.20,136.47 71.00,135.11 71.00,134.17 C71.00,133.22 71.62,131.56 72.38,130.47 C73.76,128.51 74.00,127.85 74.00,126.06 C74.00,125.54 76.70,121.98 80.00,118.16 C83.30,114.34 86.00,110.70 86.00,110.08 C86.00,109.46 87.12,108.45 88.48,107.83 C89.85,107.21 91.23,105.86 91.55,104.85 C91.87,103.83 92.51,103.00 92.97,103.00 C93.80,103.00 100.48,97.97 104.69,94.17 C105.89,93.08 108.59,91.63 110.69,90.95 C112.78,90.26 115.40,89.12 116.50,88.41 C120.84,85.63 134.12,82.00 142.13,81.42 C155.04,80.48 165.81,82.24 173.53,86.55 C177.06,88.53 180.48,89.82 181.13,89.42 C181.83,88.99 182.04,89.12 181.66,89.74 C181.30,90.32 181.65,91.04 182.43,91.34 C184.70,92.20 194.52,108.06 195.85,113.00 C196.66,115.99 196.93,122.63 196.65,132.80 C196.30,145.46 195.93,148.42 194.51,149.99 C193.56,151.04 191.82,154.55 190.64,157.80 C187.87,165.46 182.48,172.78 171.63,183.63 C166.21,189.05 154.01,199.00 152.78,199.00 C152.25,199.00 150.67,199.90 149.27,201.00 C147.87,202.10 146.04,203.00 145.19,203.00 C144.35,203.00 140.92,204.10 137.57,205.43 C134.23,206.77 127.11,208.57 121.76,209.43 C110.82,211.19 110.55,211.22 109.78,210.44 ZM 105.50 207.94 C114.41,209.14 127.70,207.56 136.50,204.27 C181.09,187.59 207.48,140.13 190.89,106.44 C183.41,91.23 168.66,82.98 149.04,83.01 C118.72,83.07 88.85,102.92 73.55,133.19 C67.76,144.66 65.60,154.49 66.23,166.52 C66.62,174.10 67.25,176.94 69.72,182.14 C76.58,196.66 89.18,205.75 105.50,207.94 ZM 106.04 173.97 C101.56,176.85 100.00,177.52 100.00,176.58 C100.00,176.34 101.75,172.86 103.89,168.83 C109.69,157.89 111.28,152.12 110.84,143.46 C110.50,136.84 109.88,134.93 104.87,125.04 C101.80,118.97 99.40,114.00 99.55,114.00 C99.70,114.00 104.25,116.25 109.66,119.01 C127.15,127.92 134.50,127.99 151.83,119.44 C156.97,116.90 161.39,115.06 161.67,115.34 C161.95,115.62 160.57,118.74 158.59,122.27 C148.43,140.44 148.53,151.47 159.01,169.87 C161.09,173.52 162.67,176.63 162.53,176.78 C162.39,176.94 158.94,175.27 154.86,173.07 C144.12,167.27 139.49,165.87 131.00,165.83 C122.70,165.79 114.75,168.39 106.04,173.97 ZM 117.00 165.82 C122.32,162.35 141.52,162.81 146.00,166.52 C148.01,168.18 153.64,171.00 154.95,171.00 C155.53,171.00 156.00,170.10 156.00,169.00 C156.00,167.90 155.66,167.00 155.24,167.00 C154.83,167.00 153.37,164.64 151.99,161.75 C149.83,157.19 149.50,155.12 149.50,146.00 C149.50,137.28 149.87,134.74 151.67,131.00 C154.93,124.23 155.38,122.08 153.65,121.42 C152.83,121.11 151.11,121.51 149.83,122.31 C144.25,125.81 136.95,127.28 128.10,126.67 C120.57,126.16 111.95,124.00 108.34,121.72 C106.61,120.64 106.11,123.19 107.59,125.50 C110.93,130.70 112.19,137.22 111.63,146.40 C110.69,162.04 110.18,164.22 106.82,167.17 C102.44,171.00 104.04,172.36 109.77,169.67 C112.37,168.44 115.62,166.71 117.00,165.82 Z" fill="rgb(140,92,225)"/>
<path d="M 0.00 123.50 L 0.00 0.00 L 123.50 0.00 L 247.00 0.00 L 247.00 123.50 L 247.00 247.00 L 123.50 247.00 L 0.00 247.00 L 0.00 123.50 ZM 145.50 224.51 C185.62,216.03 217.06,188.69 228.88,152.00 C232.78,139.90 233.98,132.13 233.99,118.93 C234.00,102.98 230.95,88.99 224.45,75.20 C222.55,71.18 221.00,67.72 221.00,67.52 C221.00,66.40 212.45,54.64 207.60,49.08 C193.40,32.78 175.76,21.85 153.00,15.24 C146.03,13.21 141.55,12.67 128.14,12.26 C110.05,11.71 101.35,12.69 88.50,16.72 C71.87,21.95 56.76,31.15 44.06,43.79 C23.24,64.52 12.00,91.06 12.00,119.50 C12.00,172.05 51.86,216.77 106.50,225.51 C117.06,227.20 134.95,226.74 145.50,224.51 ZM 105.50 207.94 C89.18,205.75 76.58,196.66 69.72,182.14 C67.25,176.94 66.62,174.10 66.23,166.52 C65.60,154.49 67.76,144.66 73.55,133.19 C88.85,102.92 118.72,83.07 149.04,83.01 C168.66,82.98 183.41,91.23 190.89,106.44 C207.48,140.13 181.09,187.59 136.50,204.27 C127.70,207.56 114.41,209.14 105.50,207.94 ZM 106.04 173.97 C114.75,168.39 122.70,165.79 131.00,165.83 C139.49,165.87 144.12,167.27 154.86,173.07 C158.94,175.27 162.39,176.94 162.53,176.78 C162.67,176.63 161.09,173.52 159.01,169.87 C148.53,151.47 148.43,140.44 158.59,122.27 C160.57,118.74 161.95,115.62 161.67,115.34 C161.39,115.06 156.97,116.90 151.83,119.44 C134.50,127.99 127.15,127.92 109.66,119.01 C104.25,116.25 99.70,114.00 99.55,114.00 C99.40,114.00 101.80,118.97 104.87,125.04 C109.88,134.93 110.50,136.84 110.84,143.46 C111.28,152.12 109.69,157.89 103.89,168.83 C101.75,172.86 100.00,176.34 100.00,176.58 C100.00,177.52 101.56,176.85 106.04,173.97 Z" fill="rgb(254,253,253)"/>
</g>
</svg>