<svg xmlns="http://www.w3.org/2000/svg" width="638" height="636" viewBox="0 0 638 636">
<g>
<path d="M 299.14 509.99 C293.45,510.55 287.37,510.92 285.64,510.82 C275.14,510.22 271.61,509.83 263.69,508.43 C193.33,496.00 158.82,429.87 183.61,355.00 C187.81,342.32 197.87,321.43 205.04,310.50 C230.61,271.50 269.89,239.57 312.10,223.46 C322.97,219.31 342.81,214.37 353.97,213.02 C368.76,211.24 395.00,212.02 395.00,214.24 C395.00,214.81 392.87,214.93 389.75,214.54 C386.86,214.17 379.80,213.65 374.06,213.37 C365.62,212.96 362.91,213.19 359.88,214.56 C357.49,215.63 355.13,216.00 353.42,215.57 C350.97,214.96 347.95,215.41 337.00,218.02 C335.08,218.48 330.80,219.42 327.50,220.11 C320.39,221.60 313.77,224.25 310.26,227.01 C308.87,228.10 307.03,229.00 306.18,229.00 C305.33,229.00 302.58,229.95 300.07,231.11 C289.72,235.90 284.49,238.57 283.27,239.68 C282.57,240.34 281.09,241.15 279.99,241.50 C278.90,241.85 278.00,242.46 278.00,242.86 C278.00,243.26 274.80,245.11 270.89,246.98 C266.98,248.85 262.87,251.61 261.76,253.11 C260.65,254.62 258.72,256.10 257.49,256.41 C256.25,256.72 255.00,257.89 254.71,259.00 C254.42,260.12 252.67,261.66 250.83,262.43 C248.99,263.20 245.82,265.62 243.79,267.81 C241.77,270.00 239.61,271.96 239.00,272.17 C238.39,272.37 237.78,273.30 237.64,274.24 C237.36,276.13 236.31,277.43 234.92,277.62 C234.41,277.69 233.60,277.81 233.11,277.88 C232.62,277.94 231.96,279.01 231.64,280.25 C231.32,281.49 229.74,283.24 228.13,284.14 C226.52,285.05 223.96,287.97 222.42,290.64 C220.89,293.31 217.30,297.62 214.45,300.21 C211.46,302.93 209.02,306.10 208.68,307.71 C208.36,309.25 206.96,311.79 205.57,313.37 C204.19,314.95 202.80,317.05 202.49,318.03 C202.18,319.01 201.27,320.07 200.46,320.38 C199.66,320.68 199.00,321.89 199.00,323.06 C199.00,324.23 198.10,326.33 197.00,327.73 C195.90,329.13 195.00,330.90 195.00,331.67 C195.00,332.44 194.31,334.12 193.47,335.41 C192.62,336.70 191.76,338.59 191.55,339.63 C191.09,341.86 188.86,347.30 185.04,355.50 C181.91,362.23 181.34,364.93 179.43,381.78 C179.04,385.23 178.33,388.30 177.86,388.59 C176.35,389.52 176.87,415.01 178.51,420.41 C179.33,423.11 180.00,426.62 180.00,428.22 C180.00,431.71 182.67,440.26 185.16,444.74 C186.15,446.53 187.15,449.00 187.39,450.24 C187.98,453.36 192.78,461.69 195.64,464.55 C196.94,465.85 198.00,467.39 198.00,467.98 C198.00,468.57 199.12,469.48 200.50,470.00 C201.88,470.52 203.00,471.58 203.00,472.36 C203.00,473.14 204.12,474.51 205.49,475.40 C206.87,476.30 207.88,477.52 207.74,478.11 C207.61,478.70 208.39,479.71 209.48,480.34 C210.58,480.98 212.06,482.29 212.79,483.25 C213.52,484.21 214.59,485.00 215.17,485.00 C215.76,485.00 217.77,486.35 219.65,488.00 C221.53,489.65 224.18,491.00 225.53,491.00 C226.93,491.00 228.52,491.88 229.24,493.05 C231.22,496.28 250.24,504.31 260.00,506.04 C262.48,506.48 267.20,507.30 270.50,507.87 C277.67,509.10 304.06,508.54 308.99,507.05 C310.91,506.47 314.30,506.00 316.51,506.00 C318.72,506.00 322.10,505.17 324.01,504.15 C325.93,503.13 329.30,501.96 331.50,501.56 C333.70,501.15 335.95,500.47 336.50,500.04 C337.47,499.27 340.83,498.49 348.00,497.35 C349.92,497.04 352.49,495.75 353.71,494.48 C354.92,493.22 357.28,491.88 358.95,491.51 C360.61,491.15 362.23,490.43 362.55,489.92 C362.86,489.42 363.90,489.00 364.85,489.00 C365.80,489.00 368.13,487.67 370.04,486.04 C371.94,484.41 374.29,483.06 375.25,483.04 C376.21,483.02 377.90,482.10 379.00,481.00 C380.10,479.90 381.85,479.00 382.89,479.00 C383.93,479.00 385.05,478.33 385.36,477.50 C385.68,476.67 386.74,475.99 387.72,475.99 C388.70,475.98 392.65,473.52 396.50,470.51 C400.35,467.51 404.77,464.08 406.33,462.88 C407.88,461.69 409.56,459.66 410.05,458.36 C410.65,456.78 411.75,456.00 413.36,456.00 C414.89,456.00 416.68,454.82 418.28,452.75 C419.67,450.96 424.79,445.36 429.65,440.30 C438.56,431.03 440.47,428.84 445.97,421.50 C447.62,419.30 449.43,416.96 449.99,416.29 C450.54,415.63 451.00,414.33 451.00,413.40 C451.00,412.47 451.92,410.76 453.04,409.61 C458.16,404.32 460.00,401.51 460.00,398.96 C460.00,397.45 460.63,395.97 461.39,395.68 C462.16,395.39 463.97,392.75 465.41,389.82 C466.86,386.90 468.43,383.83 468.90,383.00 C469.38,382.17 470.35,380.26 471.05,378.75 C471.76,377.24 472.70,376.00 473.13,376.00 C474.14,376.00 471.22,382.94 465.38,394.48 C446.93,430.87 413.54,464.95 375.50,486.18 C352.23,499.17 325.87,507.39 299.14,509.99 ZM 407.13 539.32 C406.23,540.10 402.58,541.00 399.00,541.32 L 392.50 541.91 L 403.00 538.13 C424.24,530.50 443.23,520.92 462.01,508.39 C476.95,498.42 487.42,489.70 502.04,475.06 C534.27,442.79 556.67,403.93 567.49,361.50 C573.99,336.01 574.50,331.47 574.50,298.50 C574.50,266.70 573.51,257.28 567.91,236.04 C542.56,139.79 463.52,66.58 364.50,47.61 C357.35,46.24 350.60,44.94 349.50,44.72 C348.36,44.50 349.55,44.00 352.25,43.55 C355.74,42.98 357.87,43.17 360.25,44.28 C362.04,45.11 365.52,46.09 368.00,46.45 C370.48,46.82 373.40,47.48 374.50,47.92 C377.70,49.22 385.81,51.00 388.51,51.00 C389.88,51.00 391.00,51.42 391.00,51.93 C391.00,53.19 401.86,56.27 404.17,55.67 C405.25,55.38 406.54,55.94 407.29,57.00 C407.99,58.00 410.12,58.97 412.03,59.16 C413.94,59.35 416.09,60.06 416.82,60.75 C417.55,61.44 418.92,62.00 419.87,62.00 C420.82,62.00 422.03,62.41 422.55,62.91 C424.45,64.73 432.58,68.77 435.68,69.44 C437.42,69.82 439.57,71.22 440.45,72.56 C441.33,73.90 442.87,75.00 443.87,75.00 C444.87,75.00 446.47,75.86 447.42,76.91 C448.37,77.96 451.14,79.41 453.58,80.13 C456.01,80.85 458.00,81.79 458.00,82.23 C458.00,82.66 460.19,84.48 462.86,86.26 C465.53,88.04 470.25,91.42 473.34,93.77 C476.43,96.11 480.14,98.48 481.58,99.03 C483.02,99.58 484.41,100.85 484.67,101.86 C484.94,102.87 486.91,104.78 489.06,106.10 C491.20,107.42 493.19,109.18 493.47,110.01 C493.75,110.85 495.02,112.20 496.28,113.01 C497.55,113.83 501.94,118.10 506.03,122.50 C510.13,126.90 514.28,130.82 515.24,131.22 C516.21,131.61 517.00,132.56 517.00,133.31 C517.00,134.65 520.82,138.75 521.60,138.25 C523.03,137.35 524.00,138.40 524.00,140.85 C524.00,142.42 524.89,144.50 526.00,145.50 C527.10,146.50 528.00,147.91 528.00,148.64 C528.00,149.43 528.92,149.88 530.25,149.74 C532.03,149.55 532.57,150.07 532.82,152.25 C532.99,153.76 533.55,155.00 534.07,155.00 C534.58,155.00 535.00,156.17 535.00,157.59 C535.00,159.35 535.65,160.36 537.00,160.71 C538.39,161.07 539.00,162.07 539.00,163.97 C539.00,165.55 540.13,167.92 541.65,169.57 C543.11,171.15 545.67,175.38 547.34,178.97 C549.01,182.56 551.64,187.57 553.19,190.11 C554.73,192.65 556.00,195.40 556.00,196.24 C556.00,197.07 556.62,198.27 557.39,198.91 C558.15,199.54 559.28,202.05 559.89,204.47 C560.50,206.90 561.47,209.17 562.04,209.52 C562.61,209.88 562.82,211.01 562.49,212.03 C562.13,213.15 562.62,214.62 563.71,215.71 C564.81,216.81 565.56,219.11 565.63,221.55 C565.69,223.77 566.47,227.00 567.37,228.74 C568.26,230.48 569.00,233.20 569.00,234.80 C569.00,236.39 569.71,239.11 570.57,240.84 C571.44,242.58 572.40,246.58 572.71,249.75 C573.02,252.91 573.77,256.13 574.39,256.90 C575.78,258.66 576.13,265.98 576.33,297.50 C576.51,325.61 575.64,337.96 572.93,346.00 C571.91,349.02 570.87,353.08 570.61,355.00 C569.86,360.59 565.10,377.13 562.96,381.57 C561.88,383.80 561.00,386.18 561.00,386.86 C561.00,387.53 560.06,389.92 558.91,392.18 C557.76,394.43 556.61,397.45 556.35,398.87 C556.09,400.30 555.07,402.82 554.09,404.48 C553.11,406.14 551.51,410.20 550.55,413.50 C549.58,416.80 548.01,420.19 547.06,421.03 C544.32,423.45 538.00,432.83 538.00,434.48 C538.00,435.31 536.42,438.05 534.50,440.57 C532.58,443.09 531.00,445.57 531.00,446.08 C531.00,446.58 530.42,447.00 529.72,447.00 C529.01,447.00 527.70,448.24 526.80,449.76 C525.91,451.27 523.56,454.18 521.59,456.21 C519.61,458.24 518.00,460.58 518.00,461.42 C518.00,462.25 516.99,463.47 515.75,464.13 C513.17,465.51 507.83,470.98 507.60,472.49 C507.30,474.41 505.86,476.03 504.94,475.47 C503.94,474.84 492.22,486.92 490.52,490.34 C489.93,491.52 488.60,492.65 487.57,492.84 C486.53,493.04 484.12,494.73 482.21,496.58 C480.30,498.44 476.55,500.95 473.87,502.16 C471.19,503.37 469.00,504.88 469.00,505.52 C469.00,506.57 461.65,511.89 452.13,517.73 C447.99,520.27 445.86,521.31 441.25,523.03 C439.46,523.70 438.00,524.64 438.00,525.12 C438.00,525.60 437.12,526.00 436.05,526.00 C434.97,526.00 433.04,527.01 431.75,528.25 C430.46,529.49 428.75,530.65 427.95,530.83 C427.15,531.01 425.79,531.80 424.92,532.58 C424.05,533.36 421.69,534.00 419.67,534.00 C417.65,534.00 416.00,534.43 416.00,534.95 C416.00,535.48 414.37,536.36 412.38,536.91 C410.39,537.45 408.03,538.54 407.13,539.32 ZM 351.12 553.63 C328.13,555.15 317.92,555.47 299.53,555.23 C287.57,555.08 278.14,554.54 277.58,553.98 C277.04,553.44 274.19,553.00 271.24,553.00 C265.58,553.00 257.14,551.31 255.55,549.86 C255.03,549.39 252.87,549.00 250.75,549.00 C248.64,549.00 245.04,548.10 242.76,547.00 C240.49,545.90 237.45,545.00 236.01,545.00 C234.58,545.00 232.97,544.62 232.45,544.15 C230.87,542.73 222.18,540.72 220.48,541.37 C219.53,541.73 217.97,541.06 216.60,539.69 C215.34,538.43 213.79,537.57 213.15,537.78 C212.52,537.99 209.15,536.78 205.67,535.08 C202.19,533.39 198.40,532.00 197.24,532.00 C196.09,532.00 194.40,531.26 193.50,530.35 C191.30,528.15 185.01,525.00 182.82,525.00 C181.85,525.00 180.06,523.65 178.84,522.00 C177.55,520.26 175.71,519.00 174.43,519.00 C173.23,519.00 171.67,518.31 170.97,517.46 C170.27,516.62 168.91,516.06 167.95,516.21 C166.98,516.37 165.10,515.38 163.76,514.00 C157.85,507.94 151.90,503.00 150.51,503.00 C149.68,503.00 149.00,502.59 149.00,502.10 C149.00,501.60 147.54,500.26 145.75,499.11 C143.96,497.96 140.02,495.01 137.00,492.55 C133.98,490.09 130.99,488.06 130.36,488.04 C128.82,487.99 122.00,480.87 122.00,479.30 C122.00,478.62 120.68,477.37 119.07,476.54 C117.46,475.70 115.86,474.15 115.53,473.08 C115.19,472.02 113.37,470.24 111.49,469.13 C109.53,467.97 107.44,465.58 106.58,463.53 C104.75,459.15 94.97,447.03 93.25,447.01 C92.56,447.01 91.97,446.66 91.92,446.25 C91.62,443.30 90.84,441.49 88.65,438.60 C87.26,436.79 84.90,433.10 83.40,430.40 C81.91,427.71 79.89,424.94 78.92,424.25 C77.96,423.57 76.36,420.87 75.38,418.25 C74.40,415.64 72.33,411.42 70.79,408.87 C69.24,406.32 68.23,403.55 68.55,402.72 C68.87,401.88 68.63,400.89 68.01,400.51 C67.40,400.13 65.81,397.38 64.50,394.40 C63.18,391.41 61.40,388.71 60.55,388.38 C59.43,387.95 59.00,386.38 59.00,382.76 C59.00,379.53 58.31,376.61 57.06,374.60 C55.99,372.87 55.16,370.07 55.21,368.37 C55.26,366.68 54.92,364.68 54.46,363.93 C53.29,362.04 52.16,354.00 53.06,354.00 C53.47,354.00 54.34,356.36 55.00,359.25 C62.21,390.78 82.46,430.39 105.48,458.00 C114.88,469.28 133.14,487.07 144.58,496.11 C198.21,538.46 266.87,558.96 335.00,552.97 C345.43,552.05 360.60,549.83 367.00,548.27 C369.11,547.76 369.31,547.90 368.29,549.13 C366.78,550.97 358.49,553.14 351.12,553.63 ZM 86.53 164.48 C83.24,169.81 80.20,174.38 79.78,174.64 C77.61,175.98 79.65,171.64 85.50,162.46 C89.07,156.86 92.00,151.85 92.00,151.33 C92.00,150.81 93.57,148.87 95.50,147.00 C97.43,145.13 99.02,142.68 99.04,141.55 C99.06,140.37 100.41,138.65 102.20,137.50 C103.92,136.40 105.63,134.82 106.01,134.00 C107.95,129.69 108.75,128.65 110.29,128.43 C111.99,128.18 131.00,109.25 131.00,107.81 C131.00,107.38 132.62,106.35 134.59,105.53 C136.56,104.70 138.41,103.14 138.70,102.05 C138.98,100.96 141.23,99.10 143.69,97.91 C146.15,96.72 148.65,94.67 149.24,93.37 C149.84,92.06 150.83,91.10 151.44,91.24 C152.05,91.38 154.57,89.87 157.03,87.89 C159.49,85.90 162.76,83.97 164.29,83.61 C165.83,83.24 166.81,82.50 166.48,81.97 C166.15,81.44 166.34,81.00 166.91,81.00 C167.47,81.00 169.47,79.65 171.35,78.00 C173.23,76.35 175.03,75.00 175.35,75.00 C175.93,75.00 181.67,72.46 193.70,66.88 C197.11,65.30 201.56,62.88 203.59,61.50 C205.62,60.13 207.97,59.00 208.82,59.00 C209.67,59.00 212.20,58.15 214.43,57.10 C218.37,55.27 219.99,54.81 228.50,53.08 C230.70,52.64 233.76,51.76 235.30,51.14 C236.84,50.52 239.98,49.78 242.27,49.49 C244.56,49.20 246.88,48.52 247.42,47.98 C247.96,47.44 249.77,46.99 251.45,46.97 C253.13,46.96 256.98,46.10 260.00,45.08 C263.54,43.88 267.42,43.34 270.88,43.56 C274.11,43.78 277.65,43.34 279.75,42.46 C282.52,41.30 289.14,40.99 311.87,40.95 C339.83,40.90 347.00,41.56 347.00,44.20 C347.00,44.78 346.26,44.90 345.25,44.46 C341.99,43.07 295.73,42.70 283.32,43.97 C242.76,48.12 204.86,60.94 170.25,82.20 C137.20,102.50 105.65,133.51 86.53,164.48 ZM 408.00 436.65 C408.00,438.66 407.50,439.00 404.58,439.00 C402.33,439.00 400.07,438.09 398.01,436.35 C392.92,432.07 386.64,428.10 385.79,428.63 C385.36,428.90 385.00,428.69 385.00,428.17 C385.00,427.65 383.42,426.93 381.50,426.57 C379.58,426.20 378.00,425.49 378.00,424.97 C378.00,422.99 370.09,418.75 367.36,419.27 C365.39,419.65 364.02,419.11 362.12,417.21 C360.50,415.59 360.00,414.50 360.76,414.25 C362.23,413.76 386.50,425.82 397.33,432.41 C401.63,435.03 405.35,436.98 405.59,436.74 C405.83,436.50 403.03,431.17 399.36,424.90 C391.30,411.10 383.98,395.91 380.32,385.33 C377.82,378.11 377.61,376.24 377.57,361.50 C377.53,345.84 377.60,345.30 380.89,336.00 C384.79,324.98 392.49,309.25 401.04,294.85 C406.87,285.03 407.88,282.02 404.26,285.24 C398.75,290.13 372.43,303.84 359.75,308.43 C341.03,315.21 329.50,316.17 312.68,312.35 C303.01,310.16 305.23,309.38 315.22,311.46 C325.07,313.51 337.76,313.13 346.00,310.54 C349.02,309.59 353.15,308.47 355.17,308.05 C357.19,307.64 359.59,306.55 360.49,305.65 C361.40,304.74 363.05,304.00 364.15,304.00 C365.26,304.00 368.85,302.42 372.14,300.50 C375.42,298.58 379.18,297.00 380.49,297.00 C381.81,297.00 383.13,296.61 383.42,296.12 C383.72,295.64 387.10,293.38 390.94,291.11 C394.77,288.83 398.59,286.00 399.41,284.82 C401.41,281.97 405.36,281.64 407.62,284.14 C409.09,285.75 409.19,286.43 408.19,287.81 C407.51,288.74 406.32,290.89 405.54,292.58 C404.76,294.27 403.41,296.24 402.56,296.95 C401.70,297.66 401.00,298.80 401.00,299.48 C401.00,300.16 399.88,301.56 398.52,302.58 C396.78,303.89 396.17,305.14 396.47,306.78 C397.04,309.95 396.13,312.00 394.14,312.01 C393.01,312.01 391.92,313.89 390.62,318.03 C389.59,321.34 387.91,325.12 386.88,326.43 C380.99,333.91 377.34,354.59 379.35,369.00 C379.70,371.48 380.27,375.52 380.62,378.00 C380.97,380.48 383.18,386.55 385.52,391.50 C387.86,396.45 390.30,402.15 390.94,404.17 C391.58,406.19 392.75,408.38 393.55,409.04 C394.35,409.70 395.00,411.45 395.00,412.93 C395.00,414.68 396.21,416.78 398.50,419.00 C400.42,420.87 402.00,423.15 402.00,424.07 C402.00,425.00 402.67,426.31 403.48,426.98 C405.59,428.73 408.00,433.90 408.00,436.65 ZM 51.98 345.93 C52.46,347.62 52.49,349.00 52.03,349.00 C50.71,349.00 49.00,343.09 49.00,338.50 C49.00,336.19 48.58,332.99 48.07,331.40 C46.78,327.42 45.71,312.02 45.67,297.00 C45.63,281.06 47.93,258.26 50.94,244.75 C51.52,242.14 52.42,238.09 52.92,235.75 C53.90,231.26 60.37,211.58 62.54,206.50 C63.25,204.85 65.21,200.45 66.91,196.72 C68.61,193.00 70.00,189.55 70.00,189.06 C70.00,188.57 71.57,185.79 73.48,182.88 C75.40,179.97 77.14,177.12 77.35,176.55 C77.56,175.97 78.02,175.77 78.37,176.09 C78.72,176.41 76.36,182.04 73.11,188.59 C62.81,209.40 55.05,233.03 50.98,256.00 C46.79,279.67 47.35,329.78 51.98,345.93 ZM 278.45 388.11 C277.07,392.29 275.29,396.56 274.50,397.61 C273.09,399.46 273.06,399.46 273.03,397.57 C273.01,396.51 273.43,394.26 273.97,392.57 C274.50,390.88 275.17,388.29 275.47,386.82 C275.76,385.35 276.57,383.55 277.26,382.82 C279.60,380.36 281.00,372.01 281.00,360.45 C281.00,352.37 280.59,348.27 279.61,346.71 C278.85,345.50 277.92,342.04 277.55,339.04 C277.18,336.03 275.79,331.53 274.47,329.04 C273.15,326.54 271.34,322.70 270.45,320.50 C269.56,318.30 268.43,315.83 267.95,315.00 C267.46,314.17 266.22,311.70 265.19,309.50 C264.17,307.30 262.58,304.88 261.66,304.13 C260.75,303.37 260.00,301.97 260.00,301.00 C260.00,300.03 259.33,298.68 258.50,298.00 C257.67,297.32 257.00,296.25 257.00,295.63 C257.00,295.01 255.65,292.92 254.00,291.00 C250.45,286.85 250.36,286.07 253.04,283.19 C254.99,281.09 255.19,281.07 257.79,282.68 C259.28,283.61 261.62,285.33 263.00,286.52 C266.15,289.23 272.73,293.00 274.32,293.00 C274.98,293.00 276.06,293.86 276.71,294.91 C277.37,295.96 279.16,297.11 280.70,297.46 C283.78,298.16 288.62,301.72 287.72,302.62 C287.13,303.20 280.07,299.50 264.17,290.26 C259.03,287.28 254.64,285.03 254.41,285.26 C254.17,285.49 256.31,289.69 259.16,294.59 C283.49,336.42 288.13,358.93 278.45,388.11 ZM 259.00 437.81 C254.40,439.84 253.65,439.95 251.67,438.84 C249.33,437.53 249.59,435.74 252.50,433.00 C253.88,431.71 255.00,430.17 255.00,429.58 C255.00,428.98 256.35,426.92 258.00,425.00 C259.65,423.08 261.00,420.80 261.00,419.94 C261.00,419.08 261.66,417.51 262.47,416.44 C263.28,415.37 263.95,413.90 263.97,413.16 C263.99,412.42 264.90,410.67 266.00,409.27 C267.10,407.87 268.00,405.94 268.00,404.98 C268.00,403.48 271.83,400.00 273.48,400.00 C274.62,400.00 264.41,419.01 254.74,434.87 L 252.69 438.24 L 255.10 436.96 C256.42,436.26 259.08,434.70 261.00,433.50 C277.66,423.07 299.44,413.06 312.01,410.05 C325.70,406.77 345.64,407.80 356.04,412.33 L 359.50 413.84 L 356.31 413.92 C354.55,413.96 352.84,413.55 352.50,413.00 C352.16,412.45 349.94,412.00 347.56,412.00 C345.19,412.00 341.63,411.33 339.65,410.50 C334.88,408.50 321.69,408.46 320.05,410.44 C319.40,411.23 317.43,411.88 315.68,411.88 C308.81,411.90 302.58,414.00 293.00,419.53 C291.62,420.32 289.67,420.98 288.66,420.99 C287.64,420.99 285.67,421.90 284.27,423.00 C282.87,424.10 281.07,425.00 280.26,425.00 C279.45,425.00 277.08,426.35 275.00,428.00 C272.92,429.65 270.34,431.00 269.28,431.00 C268.22,431.00 266.26,432.18 264.92,433.63 C263.59,435.07 260.92,436.95 259.00,437.81 ZM 477.38 365.27 C475.96,369.80 474.45,373.88 474.02,374.34 C472.59,375.85 474.20,365.60 476.11,361.00 C482.17,346.43 484.68,318.02 481.51,300.00 C480.59,294.77 479.20,289.23 478.42,287.67 C477.64,286.11 477.00,283.52 477.00,281.92 C477.00,280.31 476.59,279.00 476.08,279.00 C475.57,279.00 474.85,277.54 474.47,275.75 C474.09,273.96 473.17,271.81 472.43,270.96 C471.68,270.12 470.38,267.87 469.52,265.96 C468.67,264.06 467.56,261.83 467.06,261.00 C466.56,260.17 465.90,258.71 465.60,257.73 C465.30,256.76 464.03,255.57 462.78,255.08 C460.14,254.04 457.00,250.57 457.00,248.69 C457.00,246.86 454.91,245.00 452.84,245.00 C451.14,245.00 448.58,241.75 449.53,240.80 C449.79,240.54 448.76,239.70 447.25,238.92 C443.23,236.85 441.53,234.00 444.30,234.00 C446.60,234.00 456.73,243.84 463.02,252.18 C470.22,261.74 475.76,272.43 479.25,283.50 C483.38,296.59 484.45,304.42 484.37,321.00 C484.30,337.64 482.55,348.74 477.38,365.27 ZM 443.00 232.54 C443.00,233.40 440.12,233.00 439.54,232.07 C439.22,231.55 436.59,230.44 433.69,229.60 C430.78,228.75 427.34,226.92 426.03,225.53 C424.39,223.79 422.60,223.00 420.25,223.00 C418.39,223.00 416.18,222.32 415.36,221.50 C414.53,220.68 412.65,220.00 411.18,219.99 C406.51,219.98 401.06,217.98 399.93,215.86 C398.98,214.10 399.08,213.89 400.66,214.35 C401.67,214.65 405.23,215.58 408.56,216.43 C411.89,217.27 417.82,219.28 421.74,220.89 C428.61,223.73 443.00,231.61 443.00,232.54 ZM 380.87 546.87 C373.56,549.22 371.00,549.51 371.00,548.00 C371.00,547.45 371.79,546.99 372.75,546.98 C373.71,546.96 378.31,545.86 382.97,544.53 C395.73,540.90 394.20,542.58 380.87,546.87 ZM 301.50 308.00 C302.46,309.55 301.00,309.14 294.50,306.04 C289.91,303.84 289.09,303.16 291.00,303.11 C292.38,303.07 294.62,303.92 296.00,305.00 C297.38,306.08 299.04,306.97 299.69,306.98 C300.35,306.99 301.16,307.45 301.50,308.00 Z" fill="rgb(137,89,238)"/>
<path d="M 0.00 0.00 L 638.00 0.00 L 638.00 636.00 L 0.00 636.00 ZM 407.13 539.32 C408.03,538.54 410.39,537.45 412.38,536.91 C414.37,536.36 416.00,535.48 416.00,534.95 C416.00,534.43 417.65,534.00 419.67,534.00 C421.69,534.00 424.05,533.36 424.92,532.58 C425.79,531.80 427.15,531.01 427.95,530.83 C428.75,530.65 430.46,529.49 431.75,528.25 C433.04,527.01 434.97,526.00 436.05,526.00 C437.12,526.00 438.00,525.60 438.00,525.12 C438.00,524.64 439.46,523.70 441.25,523.03 C445.86,521.31 447.99,520.27 452.13,517.73 C461.65,511.89 469.00,506.57 469.00,505.52 C469.00,504.88 471.19,503.37 473.87,502.16 C476.55,500.95 480.30,498.44 482.21,496.58 C484.12,494.73 486.53,493.04 487.57,492.84 C488.60,492.65 489.93,491.52 490.52,490.34 C492.22,486.92 503.94,474.84 504.94,475.47 C505.86,476.03 507.30,474.41 507.60,472.49 C507.83,470.98 513.17,465.51 515.75,464.13 C516.99,463.47 518.00,462.25 518.00,461.42 C518.00,460.58 519.61,458.24 521.59,456.21 C523.56,454.18 525.91,451.27 526.80,449.76 C527.70,448.24 529.01,447.00 529.72,447.00 C530.42,447.00 531.00,446.58 531.00,446.08 C531.00,445.57 532.58,443.09 534.50,440.57 C536.42,438.05 538.00,435.31 538.00,434.48 C538.00,432.83 544.32,423.45 547.06,421.03 C548.01,420.19 549.58,416.80 550.55,413.50 C551.51,410.20 553.11,406.14 554.09,404.48 C555.07,402.82 556.09,400.30 556.35,398.87 C556.61,397.45 557.76,394.43 558.91,392.18 C560.06,389.92 561.00,387.53 561.00,386.86 C561.00,386.18 561.88,383.80 562.96,381.57 C565.10,377.13 569.86,360.59 570.61,355.00 C570.87,353.08 571.91,349.02 572.93,346.00 C575.64,337.96 576.51,325.61 576.33,297.50 C576.13,265.98 575.78,258.66 574.39,256.90 C573.77,256.13 573.02,252.91 572.71,249.75 C572.40,246.58 571.44,242.58 570.57,240.84 C569.71,239.11 569.00,236.39 569.00,234.80 C569.00,233.20 568.26,230.48 567.37,228.74 C566.47,227.00 565.69,223.77 565.63,221.55 C565.56,219.11 564.81,216.81 563.71,215.71 C562.62,214.62 562.13,213.15 562.49,212.03 C562.82,211.01 562.61,209.88 562.04,209.52 C561.47,209.17 560.50,206.90 559.89,204.47 C559.28,202.05 558.15,199.54 557.39,198.91 C556.62,198.27 556.00,197.07 556.00,196.24 C556.00,195.40 554.73,192.65 553.19,190.11 C551.64,187.57 549.01,182.56 547.34,178.97 C545.67,175.38 543.11,171.15 541.65,169.57 C540.13,167.92 539.00,165.55 539.00,163.97 C539.00,162.07 538.39,161.07 537.00,160.71 C535.65,160.36 535.00,159.35 535.00,157.59 C535.00,156.17 534.58,155.00 534.07,155.00 C533.55,155.00 532.99,153.76 532.82,152.25 C532.57,150.07 532.03,149.55 530.25,149.74 C528.92,149.88 528.00,149.43 528.00,148.64 C528.00,147.91 527.10,146.50 526.00,145.50 C524.89,144.50 524.00,142.42 524.00,140.85 C524.00,138.40 523.03,137.35 521.60,138.25 C520.82,138.75 517.00,134.65 517.00,133.31 C517.00,132.56 516.21,131.61 515.24,131.22 C514.28,130.82 510.13,126.90 506.03,122.50 C501.94,118.10 497.55,113.83 496.28,113.01 C495.02,112.20 493.75,110.85 493.47,110.01 C493.19,109.18 491.20,107.42 489.06,106.10 C486.91,104.78 484.94,102.87 484.67,101.86 C484.41,100.85 483.02,99.58 481.58,99.03 C480.14,98.48 476.43,96.11 473.34,93.77 C470.25,91.42 465.53,88.04 462.86,86.26 C460.19,84.48 458.00,82.66 458.00,82.23 C458.00,81.79 456.01,80.85 453.58,80.13 C451.14,79.41 448.37,77.96 447.42,76.91 C446.47,75.86 444.87,75.00 443.87,75.00 C442.87,75.00 441.33,73.90 440.45,72.56 C439.57,71.22 437.42,69.82 435.68,69.44 C432.58,68.77 424.45,64.73 422.55,62.91 C422.03,62.41 420.82,62.00 419.87,62.00 C418.92,62.00 417.55,61.44 416.82,60.75 C416.09,60.06 413.94,59.35 412.03,59.16 C410.12,58.97 407.99,58.00 407.29,57.00 C406.54,55.94 405.25,55.38 404.17,55.67 C401.86,56.27 391.00,53.19 391.00,51.93 C391.00,51.42 389.88,51.00 388.51,51.00 C385.81,51.00 377.70,49.22 374.50,47.92 C373.40,47.48 370.48,46.82 368.00,46.45 C365.52,46.09 362.04,45.11 360.25,44.28 C357.87,43.17 355.74,42.98 352.25,43.55 C349.55,44.00 348.36,44.50 349.50,44.72 C350.46,44.91 355.70,45.92 361.75,47.08 C356.73,46.15 351.66,45.36 346.54,44.71 C346.83,44.65 347.00,44.48 347.00,44.20 C347.00,41.56 339.83,40.90 311.87,40.95 C289.14,40.99 282.52,41.30 279.75,42.46 C277.65,43.34 274.11,43.78 270.88,43.56 C267.42,43.34 263.54,43.88 260.00,45.08 C256.98,46.10 253.13,46.96 251.45,46.97 C249.77,46.99 247.96,47.44 247.42,47.98 C246.88,48.52 244.56,49.20 242.27,49.49 C239.98,49.78 236.84,50.52 235.30,51.14 C233.76,51.76 230.70,52.64 228.50,53.08 C219.99,54.81 218.37,55.27 214.43,57.10 C212.20,58.15 209.67,59.00 208.82,59.00 C207.97,59.00 205.62,60.13 203.59,61.50 C201.56,62.88 197.11,65.30 193.70,66.88 C181.67,72.46 175.93,75.00 175.35,75.00 C175.03,75.00 173.23,76.35 171.35,78.00 C169.47,79.65 167.47,81.00 166.91,81.00 C166.34,81.00 166.15,81.44 166.48,81.97 C166.81,82.50 165.83,83.24 164.29,83.61 C162.76,83.97 159.49,85.90 157.03,87.89 C154.57,89.87 152.05,91.38 151.44,91.24 C150.83,91.10 149.84,92.06 149.24,93.37 C148.65,94.67 146.15,96.72 143.69,97.91 C141.23,99.10 138.98,100.96 138.70,102.05 C138.41,103.14 136.56,104.70 134.59,105.53 C132.62,106.35 131.00,107.38 131.00,107.81 C131.00,109.25 111.99,128.18 110.29,128.43 C108.75,128.65 107.95,129.69 106.01,134.00 C105.63,134.82 103.92,136.40 102.20,137.50 C100.41,138.65 99.06,140.37 99.04,141.55 C99.02,142.68 97.43,145.13 95.50,147.00 C93.57,148.87 92.00,150.81 92.00,151.33 C92.00,151.85 89.07,156.86 85.50,162.46 C79.65,171.64 77.61,175.98 79.78,174.64 C80.20,174.38 83.24,169.81 86.53,164.48 C93.61,153.02 102.39,141.54 112.32,130.61 C92.02,153.33 75.85,179.42 64.70,207.62 C67.27,201.09 70.08,194.72 73.11,188.59 C76.36,182.04 78.72,176.41 78.37,176.09 C78.02,175.77 77.56,175.97 77.35,176.55 C77.14,177.12 75.40,179.97 73.48,182.88 C71.57,185.79 70.00,188.57 70.00,189.06 C70.00,189.55 68.61,193.00 66.91,196.72 C65.21,200.45 63.25,204.85 62.54,206.50 C60.37,211.58 53.90,231.26 52.92,235.75 C52.42,238.09 51.52,242.14 50.94,244.75 C47.93,258.26 45.63,281.06 45.67,297.00 C45.71,312.02 46.78,327.42 48.07,331.40 C48.58,332.99 49.00,336.19 49.00,338.50 C49.00,343.09 50.71,349.00 52.03,349.00 C52.49,349.00 52.46,347.62 51.98,345.93 C50.69,341.42 49.71,334.25 49.07,325.76 C49.17,326.85 49.29,327.90 49.41,328.90 C52.34,352.90 58.76,376.13 68.48,397.99 C62.46,384.64 57.77,371.35 55.00,359.25 C54.34,356.36 53.47,354.00 53.06,354.00 C52.16,354.00 53.29,362.04 54.46,363.93 C54.92,364.68 55.26,366.68 55.21,368.37 C55.16,370.07 55.99,372.87 57.06,374.60 C58.31,376.61 59.00,379.53 59.00,382.76 C59.00,386.38 59.43,387.95 60.55,388.38 C61.40,388.71 63.18,391.41 64.50,394.40 C65.81,397.38 67.40,400.13 68.01,400.51 C68.63,400.89 68.87,401.88 68.55,402.72 C68.23,403.55 69.24,406.32 70.79,408.87 C72.33,411.42 74.40,415.64 75.38,418.25 C76.36,420.87 77.96,423.57 78.92,424.25 C79.89,424.94 81.91,427.71 83.40,430.40 C84.90,433.10 87.26,436.79 88.65,438.60 C90.84,441.49 91.62,443.30 91.92,446.25 C91.97,446.66 92.56,447.01 93.25,447.01 C94.97,447.03 104.75,459.15 106.58,463.53 C107.44,465.58 109.53,467.97 111.49,469.13 C113.37,470.24 115.19,472.02 115.53,473.08 C115.86,474.15 117.46,475.70 119.07,476.54 C120.68,477.37 122.00,478.62 122.00,479.30 C122.00,480.87 128.82,487.99 130.36,488.04 C130.99,488.06 133.98,490.09 137.00,492.55 C140.02,495.01 143.96,497.96 145.75,499.11 C147.54,500.26 149.00,501.60 149.00,502.10 C149.00,502.59 149.68,503.00 150.51,503.00 C151.90,503.00 157.85,507.94 163.76,514.00 C165.10,515.38 166.98,516.37 167.95,516.21 C168.91,516.06 170.27,516.62 170.97,517.46 C171.67,518.31 173.23,519.00 174.43,519.00 C175.71,519.00 177.55,520.26 178.84,522.00 C180.06,523.65 181.85,525.00 182.82,525.00 C185.01,525.00 191.30,528.15 193.50,530.35 C194.40,531.26 196.09,532.00 197.24,532.00 C198.40,532.00 202.19,533.39 205.67,535.08 C209.15,536.78 212.52,537.99 213.15,537.78 C213.79,537.57 215.34,538.43 216.60,539.69 C217.97,541.06 219.53,541.73 220.48,541.37 C222.18,540.72 230.87,542.73 232.45,544.15 C232.97,544.62 234.58,545.00 236.01,545.00 C237.45,545.00 240.49,545.90 242.76,547.00 C245.04,548.10 248.64,549.00 250.75,549.00 C252.87,549.00 255.03,549.39 255.55,549.86 C257.14,551.31 265.58,553.00 271.24,553.00 C274.19,553.00 277.04,553.44 277.58,553.98 C278.14,554.54 287.57,555.08 299.53,555.23 C317.92,555.47 328.13,555.15 351.12,553.63 C358.49,553.14 366.78,550.97 368.29,549.13 C369.31,547.90 369.11,547.76 367.00,548.27 C360.60,549.83 345.43,552.05 335.00,552.97 C321.50,554.16 307.99,554.31 294.57,553.45 C299.19,553.66 304.49,553.82 309.00,553.85 C330.34,554.04 351.32,551.79 371.63,547.22 C371.25,547.41 371.00,547.69 371.00,548.00 C371.00,549.51 373.56,549.22 380.87,546.87 C394.20,542.58 395.73,540.90 382.97,544.53 C378.31,545.86 373.71,546.96 372.75,546.98 C372.74,546.98 372.73,546.98 372.72,546.98 C383.73,544.45 394.54,541.24 405.11,537.36 C404.41,537.62 403.71,537.88 403.00,538.13 L 392.50 541.91 L 399.00 541.32 C402.58,541.00 406.23,540.10 407.13,539.32 ZM 473.28 376.80 C473.38,376.27 473.33,376.00 473.13,376.00 C472.70,376.00 471.76,377.24 471.05,378.75 C470.35,380.26 469.38,382.17 468.90,383.00 C468.43,383.83 466.86,386.90 465.41,389.82 C463.97,392.75 462.16,395.39 461.39,395.68 C460.63,395.97 460.00,397.45 460.00,398.96 C460.00,401.51 458.16,404.32 453.04,409.61 C451.92,410.76 451.00,412.47 451.00,413.40 C451.00,414.33 450.54,415.63 449.99,416.29 C449.43,416.96 447.62,419.30 445.97,421.50 C440.47,428.84 438.56,431.03 429.65,440.30 C424.79,445.36 419.67,450.96 418.28,452.75 C416.68,454.82 414.89,456.00 413.36,456.00 C411.75,456.00 410.65,456.78 410.05,458.36 C409.56,459.66 407.88,461.69 406.33,462.88 C404.77,464.08 400.35,467.51 396.50,470.51 C392.65,473.52 388.70,475.98 387.72,475.99 C386.74,475.99 385.68,476.67 385.36,477.50 C385.05,478.33 383.93,479.00 382.89,479.00 C381.85,479.00 380.10,479.90 379.00,481.00 C377.90,482.10 376.21,483.02 375.25,483.04 C374.29,483.06 371.94,484.41 370.04,486.04 C368.13,487.67 365.80,489.00 364.85,489.00 C363.90,489.00 362.86,489.42 362.55,489.92 C362.23,490.43 360.61,491.15 358.95,491.51 C357.28,491.88 354.92,493.22 353.71,494.48 C352.49,495.75 349.92,497.04 348.00,497.35 C340.83,498.49 337.47,499.27 336.50,500.04 C335.95,500.47 333.70,501.15 331.50,501.56 C329.30,501.96 325.93,503.13 324.01,504.15 C322.10,505.17 318.72,506.00 316.51,506.00 C314.30,506.00 310.91,506.47 308.99,507.05 C304.06,508.54 277.67,509.10 270.50,507.87 C267.20,507.30 262.48,506.48 260.00,506.04 C250.24,504.31 231.22,496.28 229.24,493.05 C228.52,491.88 226.93,491.00 225.53,491.00 C224.18,491.00 221.53,489.65 219.65,488.00 C217.77,486.35 215.76,485.00 215.17,485.00 C214.59,485.00 213.52,484.21 212.79,483.25 C212.06,482.29 210.58,480.98 209.48,480.34 C208.39,479.71 207.61,478.70 207.74,478.11 C207.88,477.52 206.87,476.30 205.49,475.40 C204.12,474.51 203.00,473.14 203.00,472.36 C203.00,471.58 201.88,470.52 200.50,470.00 C199.12,469.48 198.00,468.57 198.00,467.98 C198.00,467.39 196.94,465.85 195.64,464.55 C192.78,461.69 187.98,453.36 187.39,450.24 C187.15,449.00 186.15,446.53 185.16,444.74 C182.67,440.26 180.00,431.71 180.00,428.22 C180.00,426.62 179.33,423.11 178.51,420.41 C176.87,415.01 176.35,389.52 177.86,388.59 C178.33,388.30 179.04,385.23 179.43,381.78 C181.34,364.93 181.91,362.23 185.04,355.50 C188.86,347.30 191.09,341.86 191.55,339.63 C191.76,338.59 192.62,336.70 193.47,335.41 C194.31,334.12 195.00,332.44 195.00,331.67 C195.00,330.90 195.90,329.13 197.00,327.73 C198.10,326.33 199.00,324.23 199.00,323.06 C199.00,321.89 199.66,320.68 200.46,320.38 C201.27,320.07 202.18,319.01 202.49,318.03 C202.80,317.05 204.19,314.95 205.57,313.37 C206.96,311.79 208.36,309.25 208.68,307.71 C209.02,306.10 211.46,302.93 214.45,300.21 C217.30,297.62 220.89,293.31 222.42,290.64 C223.96,287.97 226.52,285.05 228.13,284.14 C229.74,283.24 231.32,281.49 231.64,280.25 C231.96,279.01 232.62,277.94 233.11,277.88 C233.60,277.81 234.41,277.69 234.92,277.62 C236.31,277.43 237.36,276.13 237.64,274.24 C237.78,273.30 238.39,272.37 239.00,272.17 C239.61,271.96 241.77,270.00 243.79,267.81 C245.82,265.62 248.99,263.20 250.83,262.43 C252.67,261.66 254.42,260.12 254.71,259.00 C255.00,257.89 256.25,256.72 257.49,256.41 C258.72,256.10 260.65,254.62 261.76,253.11 C262.87,251.61 266.98,248.85 270.89,246.98 C274.80,245.11 278.00,243.26 278.00,242.86 C278.00,242.46 278.90,241.85 279.99,241.50 C281.09,241.15 282.57,240.34 283.27,239.68 C284.49,238.57 289.72,235.90 300.07,231.11 C302.58,229.95 305.33,229.00 306.18,229.00 C307.03,229.00 308.87,228.10 310.26,227.01 C313.77,224.25 320.39,221.60 327.50,220.11 C330.80,219.42 335.08,218.48 337.00,218.02 C347.95,215.41 350.97,214.96 353.42,215.57 C355.13,216.00 357.49,215.63 359.88,214.56 C362.91,213.19 365.62,212.96 374.06,213.37 C379.80,213.65 386.86,214.17 389.75,214.54 C392.87,214.93 395.00,214.81 395.00,214.24 C395.00,213.94 394.54,213.67 393.70,213.43 C395.60,213.71 397.47,214.02 399.32,214.37 C399.30,214.62 399.52,215.09 399.93,215.86 C401.06,217.98 406.51,219.98 411.18,219.99 C412.65,220.00 414.53,220.68 415.36,221.50 C416.18,222.32 418.39,223.00 420.25,223.00 C422.60,223.00 424.39,223.79 426.03,225.53 C427.34,226.92 430.78,228.75 433.69,229.60 C436.59,230.44 439.22,231.55 439.54,232.07 C440.09,232.96 442.75,233.36 442.98,232.65 C443.70,233.17 444.41,233.70 445.12,234.24 C444.79,234.08 444.51,234.00 444.30,234.00 C441.53,234.00 443.23,236.85 447.25,238.92 C448.76,239.70 449.79,240.54 449.53,240.80 C448.58,241.75 451.14,245.00 452.84,245.00 C454.91,245.00 457.00,246.86 457.00,248.69 C457.00,250.57 460.14,254.04 462.78,255.08 C464.03,255.57 465.30,256.76 465.60,257.73 C465.90,258.71 466.56,260.17 467.06,261.00 C467.56,261.83 468.67,264.06 469.52,265.96 C470.38,267.87 471.68,270.12 472.43,270.96 C473.17,271.81 474.09,273.96 474.47,275.75 C474.85,277.54 475.57,279.00 476.08,279.00 C476.59,279.00 477.00,280.31 477.00,281.92 C477.00,283.52 477.64,286.11 478.42,287.67 C479.20,289.23 480.59,294.77 481.51,300.00 C484.68,318.02 482.17,346.43 476.11,361.00 C474.20,365.60 472.59,375.85 474.02,374.34 C474.18,374.17 474.49,373.49 474.89,372.48 C474.37,373.93 473.83,375.37 473.28,376.80 ZM 408.00 436.65 C408.00,433.90 405.59,428.73 403.48,426.98 C402.67,426.31 402.00,425.00 402.00,424.07 C402.00,423.15 400.42,420.87 398.50,419.00 C396.21,416.78 395.00,414.68 395.00,412.93 C395.00,411.45 394.35,409.70 393.55,409.04 C392.75,408.38 391.58,406.19 390.94,404.17 C390.30,402.15 387.86,396.45 385.52,391.50 C383.18,386.55 380.97,380.48 380.62,378.00 C380.27,375.52 379.70,371.48 379.35,369.00 C377.34,354.59 380.99,333.91 386.88,326.43 C387.91,325.12 389.59,321.34 390.62,318.03 C391.92,313.89 393.01,312.01 394.14,312.01 C396.13,312.00 397.04,309.95 396.47,306.78 C396.17,305.14 396.78,303.89 398.52,302.58 C399.88,301.56 401.00,300.16 401.00,299.48 C401.00,298.80 401.70,297.66 402.56,296.95 C403.41,296.24 404.76,294.27 405.54,292.58 C406.32,290.89 407.51,288.74 408.19,287.81 C409.19,286.43 409.09,285.75 407.62,284.14 C405.36,281.64 401.41,281.97 399.41,284.82 C398.59,286.00 394.77,288.83 390.94,291.11 C387.10,293.38 383.72,295.64 383.42,296.12 C383.13,296.61 381.81,297.00 380.49,297.00 C379.18,297.00 375.42,298.58 372.14,300.50 C368.85,302.42 365.26,304.00 364.15,304.00 C363.05,304.00 361.40,304.74 360.49,305.65 C359.59,306.55 357.19,307.64 355.17,308.05 C353.15,308.47 349.02,309.59 346.00,310.54 C337.76,313.13 325.07,313.51 315.22,311.46 C308.98,310.16 305.77,309.98 306.60,310.56 C304.98,310.04 303.34,309.46 301.65,308.84 C301.85,308.74 301.78,308.45 301.50,308.00 C301.16,307.45 300.35,306.99 299.69,306.98 C299.04,306.97 297.38,306.08 296.00,305.00 C294.62,303.92 292.38,303.07 291.00,303.11 C289.28,303.15 289.77,303.71 293.24,305.43 C291.25,304.56 289.21,303.62 287.12,302.62 C287.44,302.70 287.64,302.70 287.72,302.62 C288.62,301.72 283.78,298.16 280.70,297.46 C279.16,297.11 277.37,295.96 276.71,294.91 C276.06,293.86 274.98,293.00 274.32,293.00 C272.73,293.00 266.15,289.23 263.00,286.52 C261.62,285.33 259.28,283.61 257.79,282.68 C255.19,281.07 254.99,281.09 253.04,283.19 C250.36,286.07 250.45,286.85 254.00,291.00 C255.65,292.92 257.00,295.01 257.00,295.63 C257.00,296.25 257.67,297.32 258.50,298.00 C259.33,298.68 260.00,300.03 260.00,301.00 C260.00,301.97 260.75,303.37 261.66,304.13 C262.58,304.88 264.17,307.30 265.19,309.50 C266.22,311.70 267.46,314.17 267.95,315.00 C268.43,315.83 269.56,318.30 270.45,320.50 C271.34,322.70 273.15,326.54 274.47,329.04 C275.79,331.53 277.18,336.03 277.55,339.04 C277.92,342.04 278.85,345.50 279.61,346.71 C280.59,348.27 281.00,352.37 281.00,360.45 C281.00,372.01 279.60,380.36 277.26,382.82 C276.57,383.55 275.76,385.35 275.47,386.82 C275.17,388.29 274.50,390.88 273.97,392.57 C273.43,394.26 273.01,396.51 273.03,397.57 C273.06,399.46 273.09,399.46 274.50,397.61 C275.29,396.56 277.07,392.29 278.45,388.11 C282.34,376.38 283.92,365.73 282.83,354.47 C283.93,365.47 282.50,375.83 278.86,387.00 C277.57,390.94 275.80,395.39 273.55,400.31 C273.58,400.11 273.56,400.00 273.48,400.00 C271.83,400.00 268.00,403.48 268.00,404.98 C268.00,405.94 267.10,407.87 266.00,409.27 C264.90,410.67 263.99,412.42 263.97,413.16 C263.95,413.90 263.28,415.37 262.47,416.44 C261.66,417.51 261.00,419.08 261.00,419.94 C261.00,420.80 259.65,423.08 258.00,425.00 C256.35,426.92 255.00,428.98 255.00,429.58 C255.00,430.17 253.88,431.71 252.50,433.00 C249.59,435.74 249.33,437.53 251.67,438.84 C253.65,439.95 254.40,439.84 259.00,437.81 C260.92,436.95 263.59,435.07 264.92,433.63 C266.26,432.18 268.22,431.00 269.28,431.00 C270.34,431.00 272.92,429.65 275.00,428.00 C277.08,426.35 279.45,425.00 280.26,425.00 C281.07,425.00 282.87,424.10 284.27,423.00 C285.67,421.90 287.64,420.99 288.66,420.99 C289.67,420.98 291.62,420.32 293.00,419.53 C302.58,414.00 308.81,411.90 315.68,411.88 C317.43,411.88 319.40,411.23 320.05,410.44 C321.69,408.46 334.88,408.50 339.65,410.50 C341.63,411.33 345.19,412.00 347.56,412.00 C349.94,412.00 352.16,412.45 352.50,413.00 C352.84,413.55 354.55,413.96 356.31,413.92 L 359.50 413.84 L 356.04 412.33 C355.49,412.09 354.90,411.86 354.30,411.64 C355.70,412.06 357.10,412.52 358.50,413.01 C360.17,413.60 362.47,414.56 365.17,415.77 C362.74,414.72 361.11,414.13 360.76,414.25 C360.00,414.50 360.50,415.59 362.12,417.21 C364.02,419.11 365.39,419.65 367.36,419.27 C370.09,418.75 378.00,422.99 378.00,424.97 C378.00,425.49 379.58,426.20 381.50,426.57 C383.42,426.93 385.00,427.65 385.00,428.17 C385.00,428.69 385.36,428.90 385.79,428.63 C386.64,428.10 392.92,432.07 398.01,436.35 C400.07,438.09 402.33,439.00 404.58,439.00 C407.50,439.00 408.00,438.66 408.00,436.65 ZM 278.05 240.23 C249.25,257.73 223.56,282.26 205.04,310.50 C223.86,281.80 249.41,257.49 278.05,240.23 ZM 240.57 544.44 C216.99,538.01 194.30,528.40 173.23,515.83 C194.02,528.16 216.90,537.89 240.57,544.44 ZM 307.93 411.17 C301.82,413.04 294.30,416.06 286.47,419.72 C289.80,418.08 292.79,416.67 295.01,415.72 C299.34,413.87 303.65,412.35 307.93,411.17 ZM 363.83 306.84 C369.53,304.49 376.71,301.07 383.48,297.58 C380.48,299.21 377.58,300.75 375.14,301.97 C371.90,303.59 367.98,305.27 363.83,306.84 ZM 477.89 279.51 C480.09,285.50 481.83,291.83 483.11,298.50 C484.32,304.86 484.69,315.44 484.30,325.72 C484.35,324.19 484.37,322.62 484.37,321.00 C484.45,304.42 483.38,296.59 479.25,283.50 C478.83,282.16 478.38,280.83 477.89,279.51 ZM 313.74 312.59 C323.66,314.75 331.79,315.20 340.78,313.71 C340.06,313.85 339.36,313.97 338.70,314.07 C331.06,315.26 322.94,314.83 313.74,312.59 ZM 345.57 44.59 C345.21,44.54 344.86,44.50 344.50,44.46 C340.83,44.02 336.17,43.68 330.98,43.45 C338.54,43.66 344.19,44.01 345.25,44.46 C345.36,44.51 345.47,44.55 345.57,44.59 ZM 98.51 449.18 C104.12,456.52 110.27,463.62 117.23,470.87 C112.72,466.23 108.61,461.76 105.48,458.00 C103.12,455.18 100.80,452.23 98.51,449.18 ZM 271.22 294.33 C269.88,293.58 268.51,292.80 267.13,292.01 C260.48,288.19 254.84,285.22 254.39,285.29 C254.40,285.27 254.40,285.27 254.41,285.26 C254.64,285.03 259.03,287.28 264.17,290.26 C266.75,291.76 269.10,293.11 271.22,294.33 ZM 293.55 43.42 C287.98,43.65 282.95,44.00 278.99,44.47 C271.31,45.37 263.74,46.58 256.28,48.10 C265.16,46.28 274.17,44.91 283.32,43.97 C285.68,43.73 289.27,43.54 293.55,43.42 ZM 340.24 408.65 C334.45,408.04 328.20,407.96 322.31,408.46 C328.31,407.85 334.28,407.92 340.24,408.65 ZM 459.74 248.09 C466.17,255.62 471.51,264.23 475.63,273.81 C472.34,266.21 468.09,258.92 463.02,252.18 C462.01,250.84 460.90,249.46 459.74,248.09 ZM 435.31 227.63 C431.55,225.56 427.12,223.29 423.70,221.75 C427.74,223.49 431.61,225.45 435.31,227.63 ZM 400.69 469.76 C392.63,475.88 384.59,481.11 375.50,486.18 C384.18,481.33 392.62,475.82 400.69,469.76 ZM 344.43 214.60 C338.54,215.77 331.92,217.36 325.78,219.08 C328.23,218.36 330.69,217.70 333.16,217.09 C337.17,216.10 340.88,215.28 344.43,214.60 ZM 373.15 212.00 C374.85,212.00 376.53,212.03 378.20,212.08 C372.77,211.97 366.73,212.06 361.27,212.39 C365.08,212.12 368.97,212.00 373.15,212.00 ZM 487.68 488.72 C492.25,484.58 497.59,479.52 502.04,475.06 C496.86,480.25 492.20,484.70 487.68,488.72 ZM 415.67 533.24 C425.37,529.21 434.85,524.60 444.07,519.43 C434.87,524.60 425.48,529.17 415.67,533.24 ZM 48.77 276.85 C49.24,268.93 49.97,261.70 50.98,256.00 C50.01,261.49 49.27,268.81 48.77,276.85 ZM 254.74 434.87 L 252.69 438.24 L 254.74 434.87 C257.20,430.84 259.68,426.62 262.01,422.55 C259.77,426.49 257.35,430.60 254.74,434.87 ZM 442.58 429.40 C445.81,425.40 448.88,421.31 451.76,417.16 C448.88,421.31 445.82,425.39 442.58,429.40 Z" fill="rgb(139,82,254)"/>
<path d="M 387.81 319.61 C391.40,312.04 395.67,303.94 399.95,296.68 C404.69,288.66 405.80,286.00 404.42,286.00 C404.24,286.00 402.55,286.88 400.06,288.25 C401.91,287.06 403.36,286.03 404.26,285.24 C407.88,282.02 406.87,285.03 401.04,294.85 C396.18,303.04 391.58,311.67 387.81,319.61 ZM 351.53 311.17 C353.72,310.52 355.99,309.77 358.38,308.92 C356.05,309.76 353.77,310.51 351.53,311.17 ZM 342.16 313.47 C341.00,313.69 339.85,313.89 338.70,314.07 C339.36,313.97 340.06,313.85 340.78,313.71 C341.23,313.63 341.69,313.55 342.16,313.47 Z" fill="rgb(225,205,254)"/>
<path d="M 285.83 552.89 C228.44,547.35 170.95,521.85 130.65,484.07 C104.33,459.39 88.72,438.76 73.47,408.50 C60.93,383.63 52.82,356.78 49.41,328.90 C47.09,309.91 47.87,273.58 50.98,256.00 C63.64,184.54 107.34,120.85 170.25,82.20 C203.78,61.60 239.92,49.06 278.99,44.47 C295.04,42.58 328.82,42.58 344.50,44.46 C452.88,57.45 540.71,132.76 567.91,236.04 C573.51,257.28 574.50,266.70 574.50,298.50 C574.50,331.47 573.99,336.01 567.49,361.50 C556.67,403.93 534.27,442.79 502.04,475.06 C494.60,482.52 484.68,491.64 480.01,495.33 C431.03,534.05 371.59,554.39 309.00,553.85 C301.02,553.79 290.60,553.35 285.83,552.89 ZM 299.14 509.99 C325.87,507.39 352.23,499.17 375.50,486.18 C388.06,479.17 398.63,471.86 410.00,462.32 C448.70,429.86 472.77,391.37 482.10,347.00 C484.75,334.40 485.26,309.80 483.11,298.50 C472.82,244.56 431.43,212.00 373.15,212.00 C359.04,212.00 348.18,213.38 333.16,217.09 C283.13,229.44 235.35,264.27 205.04,310.50 C197.87,321.43 187.81,342.32 183.61,355.00 C158.82,429.87 193.33,496.00 263.69,508.43 C271.61,509.83 275.14,510.22 285.64,510.82 C287.37,510.92 293.45,510.55 299.14,509.99 ZM 254.74 434.87 C266.78,415.13 275.02,398.76 278.86,387.00 C288.05,358.82 283.15,335.84 259.16,294.59 C256.31,289.69 254.16,285.51 254.37,285.30 C254.59,285.08 260.33,288.10 267.13,292.01 C299.18,310.41 320.35,316.94 338.70,314.07 C354.33,311.63 371.01,304.91 393.25,292.10 C399.07,288.74 404.10,286.00 404.42,286.00 C405.80,286.00 404.69,288.66 399.95,296.68 C392.25,309.71 384.61,325.47 380.89,336.00 C377.60,345.30 377.53,345.84 377.57,361.50 C377.61,376.24 377.82,378.11 380.32,385.33 C383.98,395.91 391.30,411.10 399.36,424.90 C403.03,431.17 405.83,436.50 405.59,436.74 C405.35,436.98 401.63,435.04 397.33,432.42 C387.12,426.20 366.11,415.70 358.50,413.01 C337.53,405.59 316.63,406.48 295.01,415.72 C286.91,419.18 268.51,428.80 261.00,433.50 C259.08,434.70 256.42,436.26 255.10,436.96 L 252.69 438.24 L 254.74 434.87 Z" fill="rgb(254,254,254)"/>
</g>
</svg>